<svg width="226" height="226" viewBox="0 0 226 226" fill="none" xmlns="http://www.w3.org/2000/svg">
<path d="M222.094 120.489L120.489 222.094C116.38 226.204 109.62 226.204 105.511 222.094L3.90559 120.489C-0.204043 116.38 -0.204043 109.62 3.90559 105.511L105.511 3.90559C109.62 -0.204043 116.38 -0.204043 120.489 3.90559L222.094 105.511C226.204 109.62 226.204 116.38 222.094 120.489Z" fill="#FED012"/>
<path d="M52.0315 105.159C53.0048 105.186 53.9781 105.294 54.9244 105.349C64.6578 105.781 74.3911 106.187 84.1244 106.619C84.1244 106.7 84.1244 106.754 84.1244 106.836C85.7467 106.836 87.3689 106.809 89.0181 106.836C89.8563 106.836 90.1267 106.565 89.9104 105.727C89.0452 102.645 88.18 99.5356 87.3689 96.4263C87.1796 95.7233 86.8281 95.4259 86.0711 95.3989C82.6104 95.2096 79.1767 94.9393 75.743 94.777C69.3893 94.4796 63.0085 94.2904 56.6548 93.9659C55.2759 93.8848 54.573 94.4255 54.1674 95.6693C53.4915 97.7241 52.7344 99.7789 52.0044 101.807C51.7341 102.564 51.4907 103.348 51.2744 104.132C51.0581 104.754 51.2744 105.132 52.0315 105.159Z" fill="#FED012"/>
<path d="M109.647 135.414C107.971 138.144 105.457 139.604 102.401 140.199C97.7511 141.119 93.1278 140.172 88.5045 139.821C84.7463 139.523 81.0152 139.253 77.2571 139.037C76.5541 138.983 75.7971 139.037 75.3374 140.037C76.8245 140.334 78.2034 140.551 79.5552 140.875C85.2871 142.335 90.9919 143.984 96.94 144.471C102.293 144.904 107.403 144.336 112.081 141.497C116.244 138.956 118.678 135.008 120.408 130.601C122.598 125.004 123.301 119.11 123.463 113.162C123.626 107.62 123.599 102.077 122.355 96.5886C120.922 90.2078 117.272 84.6652 110.188 82.8537C103.159 81.0693 96.0478 80.5556 88.856 80.7178C84.1515 80.7989 79.5011 81.3397 74.9859 82.7997C74.5263 82.9349 74.0937 83.1782 73.6611 83.3945C73.6611 83.5297 73.6882 83.6649 73.6882 83.773C74.0126 83.8271 74.31 83.9623 74.6345 83.9623C77.1219 84.0434 79.6093 84.1245 82.0967 84.2056C88.4234 84.3949 94.75 83.773 101.05 84.8545C106.619 85.8008 110.675 88.6667 113.054 93.8308C115.136 98.373 115.569 103.24 115.839 108.133C116.082 112.676 115.623 117.164 114.73 121.652C113.703 126.492 112.27 131.169 109.647 135.414Z" fill="#FED012"/>
<path d="M64.1712 124.842C71.5793 125.275 78.9604 125.68 86.3686 126.086C86.3686 126.032 86.3686 125.978 86.3686 125.924C89.3697 125.924 92.3438 125.897 95.3449 125.924C96.4804 125.951 97.2104 125.626 97.2645 124.356C97.2915 123.707 97.4538 123.058 97.5349 122.409C98.0756 118.272 98.0756 114.19 96.0478 110.377C93.8308 106.133 92.3708 101.59 91.2082 96.967C90.8567 95.507 90.2619 94.1011 89.8023 92.6681C89.613 92.0463 89.2615 91.857 88.6126 91.857C84.2326 91.7218 79.8527 91.5596 75.4727 91.3974C71.4441 91.2622 67.3886 91.154 63.3601 91.0189C60.1427 90.9107 56.9252 90.8026 53.7078 90.6674C52.8427 90.6403 52.2749 90.8026 51.9504 91.7759C49.9227 97.9944 47.0567 103.834 43.9745 109.593C43.0552 111.297 42.7038 113.433 42.5415 115.379C42.3793 117.434 42.866 119.543 42.9471 121.625C42.9741 122.544 43.3797 123.004 44.1908 123.139C45.9482 123.409 47.7056 123.707 49.4901 123.842C54.4108 124.22 59.3045 124.545 64.1712 124.842ZM51.2475 104.105C51.4638 103.321 51.7341 102.537 51.9775 101.78C52.6804 99.7248 53.4375 97.697 54.1404 95.6422C54.546 94.3985 55.249 93.8848 56.6278 93.9389C62.9815 94.2633 69.3623 94.4526 75.716 94.75C79.1767 94.9122 82.6104 95.2096 86.0441 95.3718C86.8012 95.3989 87.1527 95.6963 87.3419 96.3992C88.1801 99.5085 89.0182 102.618 89.8834 105.7C90.1267 106.565 89.8293 106.836 88.9912 106.808C87.3689 106.781 85.7467 106.808 84.0975 106.808C84.0975 106.727 84.0975 106.673 84.0975 106.592C74.3641 106.16 64.6308 105.754 54.8975 105.321C53.9241 105.267 52.9508 105.159 52.0045 105.132C51.2745 105.132 51.0582 104.754 51.2475 104.105Z" fill="black"/>
<path d="M51.5989 125.356C49.8415 125.167 48.0571 125.086 46.0293 124.977C45.9482 128.06 45.813 131.007 45.813 133.927C45.813 134.224 46.4078 134.738 46.7593 134.765C48.4626 134.873 50.1659 134.873 51.8693 134.792C52.1667 134.792 52.7074 134.278 52.7074 134.008C52.6534 131.385 52.5452 128.736 52.383 126.113C52.3559 125.843 51.8963 125.383 51.5989 125.356Z" fill="black"/>
<path d="M219.526 112.73C218.877 112.865 218.12 113 217.796 113.135C217.336 113.297 216.525 113.46 216.146 113.595C215.849 113.649 215.579 113.73 215.254 113.784C215.011 113.838 214.578 113.973 214.227 114.027C209.117 115.001 204.007 115.92 198.924 117.002C190.704 118.759 182.485 120.57 174.293 122.517C166.939 124.274 159.882 126.897 153.447 130.926C147.58 134.576 142.47 139.172 137.414 143.822C133.007 147.851 128.682 151.96 123.734 155.367C116.812 160.126 109.242 161.423 101.104 159.882C95.5071 158.828 90.2889 156.746 85.3952 153.961C79.9067 150.852 74.5804 147.445 69.2541 144.012C67.3615 142.795 65.5771 141.362 64.036 139.767C62.63 138.307 62.3326 136.576 64.9282 135.9C65.2256 135.819 65.523 135.738 65.8204 135.657C68.8756 134.819 71.9578 134.873 75.0671 135.062C78.0952 135.252 81.1234 135.441 84.1245 135.63C84.9897 135.684 85.4493 135.414 85.6386 134.467C85.963 132.845 86.3956 131.223 86.8282 129.601C87.6934 126.383 87.0445 127.113 90.1267 127.113C90.9919 127.113 92.2897 127.086 92.6141 127.573C93.3441 128.682 93.6956 130.087 94.0471 131.412C94.2363 132.115 94.0741 132.872 94.1282 133.629C94.1552 134.008 94.2363 134.386 94.3445 134.765C94.5338 135.468 94.9663 135.9 95.7775 135.846C97.1563 135.738 98.5893 135.819 99.9412 135.522C104.754 134.522 107.755 131.304 109.674 126.978C111.405 123.112 112.027 118.975 112.243 114.757C112.622 107.89 111.648 101.212 109.215 94.75C107.782 90.9108 105.376 88.3423 101.158 87.8015C100.239 87.6934 99.3193 87.5312 98.373 87.4771C90.7486 87.0445 83.0971 86.6389 75.4726 86.2604C72.7689 86.1252 70.0382 86.0982 67.3345 85.8819C65.6312 85.7467 64.3063 84.4489 64.1712 83.0971C64.0089 81.6641 64.9552 80.2041 66.4693 79.5552C66.7937 79.42 67.0912 79.2578 67.4156 79.0956C73.3367 76.0945 79.1497 72.9041 85.1789 70.1463C92.3438 66.9019 99.7789 64.4956 107.755 64.1982C113.46 63.9819 118.759 65.1175 123.599 68.2808C127.465 70.8223 131.304 73.3908 135.252 75.77C141.578 79.5823 148.5 81.2856 155.881 81.3667C161.045 81.4478 166.074 80.4745 171.103 79.5823C175.077 78.8793 179.024 78.0682 182.972 77.3382C183.729 77.203 184.405 77.0408 184.675 76.9867C184.837 76.9597 185.378 76.8515 185.73 76.7975L116.947 8.09634C115.893 7.0419 114.487 6.47412 113 6.47412C111.513 6.47412 110.107 7.0419 109.053 8.09634L8.09634 109.053C7.0419 110.107 6.47412 111.513 6.47412 113C6.47412 114.487 7.0419 115.893 8.09634 116.947L109.053 217.904C111.243 220.094 114.784 220.094 116.974 217.904L217.904 116.947C218.958 115.893 219.526 114.487 219.526 113C219.553 112.892 219.553 112.811 219.526 112.73ZM43.0012 121.625C42.92 119.543 42.4334 117.434 42.5956 115.379C42.7308 113.406 43.1093 111.297 44.0286 109.593C47.1108 103.834 49.9767 97.9945 52.0045 91.776C52.3289 90.8026 52.8967 90.6404 53.7619 90.6674C56.9793 90.8026 60.1967 90.9108 63.4141 91.0189C67.4426 91.1541 71.4982 91.2623 75.5267 91.3975C79.9067 91.5326 84.2867 91.7219 88.6667 91.8571C89.3156 91.8841 89.6671 92.0734 89.8563 92.6682C90.316 94.1012 90.8838 95.5071 91.2623 96.9671C92.4249 101.617 93.8849 106.133 96.1019 110.377C98.1026 114.217 98.1026 118.272 97.5889 122.409C97.5078 123.058 97.3456 123.707 97.3186 124.356C97.2645 125.653 96.5345 125.951 95.3989 125.924C92.3978 125.897 89.4238 125.924 86.4226 125.924C86.4226 125.978 86.4226 126.032 86.4226 126.086C79.0145 125.68 71.6063 125.275 64.2252 124.842C59.3586 124.545 54.4649 124.22 49.5982 123.842C47.8138 123.707 46.0563 123.409 44.2989 123.139C43.4337 123.004 43.0282 122.544 43.0012 121.625ZM51.8693 134.792C50.166 134.846 48.4626 134.846 46.7593 134.765C46.4078 134.738 45.813 134.224 45.813 133.927C45.84 131.007 45.9482 128.06 46.0293 124.977C48.0571 125.113 49.8145 125.194 51.5989 125.356C51.8963 125.383 52.356 125.843 52.383 126.113C52.5452 128.736 52.6534 131.358 52.7075 134.008C52.7075 134.278 52.1667 134.792 51.8693 134.792Z" fill="#FED012"/>
<path d="M159.936 114.514C163.64 115.325 167.426 114.568 171.103 113.892C176.213 112.973 181.296 111.865 186.352 110.675C193.111 109.08 199.816 107.349 206.548 105.673C206.954 105.565 207.332 105.403 207.711 105.24C207.819 105.186 207.873 105.078 207.846 104.97C207.819 104.862 207.711 104.781 207.603 104.781C206.44 104.916 205.25 104.97 204.115 105.24C193.706 107.512 183.296 109.864 172.887 112.108C169.886 112.757 166.858 113.27 163.83 113.595C160.261 113.973 157.827 112.243 156.908 109.053C156.178 106.511 156.476 104.267 157.557 101.969C157.692 101.672 158.585 100.644 158.855 100.374C159.882 99.3193 160.423 98.9138 161.694 98.2108C166.425 95.6693 171.67 94.9664 176.835 93.966C181.62 93.0467 186.433 92.2086 191.191 91.2082C192.597 90.9108 193.949 90.1808 195.274 89.586C195.409 89.5319 195.49 89.4238 195.598 89.3156C195.787 89.0723 195.787 88.7208 195.571 88.5045C195.436 88.3693 195.301 88.2612 195.139 88.2071C193.976 87.9097 192.786 87.4501 191.624 87.5312C188.704 87.7475 185.73 87.9367 182.891 88.6127C176.591 90.0997 170.346 91.776 164.127 93.5604C161.667 94.2634 159.206 95.2367 156.935 96.4534C154.556 97.7241 153.042 99.779 152.961 102.726C152.907 105.267 153.718 107.512 154.61 109.783C155.61 112.243 157.503 113.973 159.936 114.514Z" fill="#FED012"/>
<path d="M151.42 89.7753C158.017 89.9645 164.506 89.0453 170.94 87.8556C176.51 86.8282 182.026 85.5575 187.541 84.3138C188.406 84.1245 189.217 83.5567 189.92 82.989C190.786 82.286 190.677 81.8804 189.704 81.3667C187.649 80.2582 185.405 80.3123 183.215 80.6097C179.809 81.0964 176.429 81.7453 173.049 82.4753C167.561 83.6649 162.099 84.9627 156.449 85.233C151.42 85.4764 146.445 85.0438 141.659 83.2864C135.792 81.1504 130.628 77.8249 125.653 74.1478C123.301 72.3904 120.922 70.579 118.353 69.2001C114.136 66.956 109.485 67.1182 104.916 67.5779C101.293 67.9293 97.7241 68.6593 94.1282 69.2542C93.9119 69.2812 93.7226 69.4434 93.5063 69.5516C93.5063 69.6867 93.5334 69.7949 93.5334 69.9301C93.966 70.0112 94.3986 70.2004 94.8582 70.2004C97.8863 70.1193 100.914 70.1193 103.916 69.8219C109.404 69.2541 114.568 70.0112 119.056 73.3367C122.76 76.0675 126.383 78.9604 129.979 81.8534C136.306 86.8282 143.39 89.559 151.42 89.7753Z" fill="#FED012"/>
<path d="M219.472 107.484L118.516 6.52819C117.056 5.06819 115.082 4.25708 113 4.25708C110.918 4.25708 108.944 5.06819 107.484 6.52819L6.52819 107.484C5.06819 108.944 4.25708 110.918 4.25708 113C4.25708 115.082 5.06819 117.056 6.52819 118.516L107.484 219.472C108.999 220.986 110.999 221.743 113 221.743C115.001 221.743 117.002 220.986 118.516 219.472L219.472 118.516C220.932 117.056 221.743 115.082 221.743 113C221.743 110.918 220.959 108.944 219.472 107.484ZM217.904 116.947L116.947 217.904C114.757 220.094 111.216 220.094 109.026 217.904L8.09634 116.947C7.04189 115.893 6.47412 114.487 6.47412 113C6.47412 111.513 7.04189 110.107 8.09634 109.053L109.053 8.09634C110.107 7.04189 111.513 6.47412 113 6.47412C114.487 6.47412 115.893 7.04189 116.947 8.09634L185.703 76.8515C185.351 76.9056 184.837 77.0137 184.648 77.0408C184.378 77.0949 183.702 77.2571 182.945 77.3923C178.97 78.0952 175.05 78.9334 171.076 79.6363C166.047 80.5286 161.018 81.4749 155.854 81.4208C148.473 81.3126 141.551 79.6363 135.224 75.8241C131.277 73.4449 127.438 70.8763 123.572 68.3349C118.759 65.1715 113.433 64.036 107.728 64.2523C99.7519 64.5497 92.3167 66.956 85.1519 70.2004C78.9604 73.0123 72.9582 76.3378 66.8749 79.393C66.7126 79.4741 66.5504 79.5282 66.4152 79.6093C64.9282 80.2852 64.0089 81.7182 64.1441 83.1511C64.3063 84.503 65.6041 85.8008 67.3074 85.936C70.0112 86.1523 72.7419 86.1793 75.4456 86.3145C83.07 86.72 90.7215 87.1256 98.346 87.5312C99.2652 87.5852 100.184 87.7475 101.131 87.8556C105.349 88.3963 107.755 90.9919 109.188 94.8041C111.621 101.266 112.594 107.944 112.216 114.812C111.973 119.002 111.351 123.139 109.647 127.032C107.728 131.358 104.727 134.576 99.9141 135.576C98.5623 135.846 97.1293 135.792 95.7504 135.9C94.9393 135.954 94.5337 135.522 94.3174 134.819C94.2093 134.44 94.1282 134.062 94.1012 133.683C94.0471 132.953 94.2093 132.169 94.02 131.466C93.6686 130.142 93.3441 128.736 92.5871 127.627C92.2626 127.14 90.9649 127.167 90.0997 127.167C87.0174 127.167 87.6663 126.437 86.8011 129.655C86.3686 131.25 85.936 132.872 85.6115 134.522C85.4223 135.468 84.9626 135.738 84.0974 135.684C81.0693 135.495 78.0412 135.306 75.04 135.116C71.7956 134.9 68.5782 134.873 65.4149 135.819C65.2526 135.873 65.1174 135.9 64.9552 135.954C62.3056 136.63 62.576 138.361 64.0089 139.821C65.5771 141.416 67.3615 142.876 69.2271 144.066C74.5534 147.472 79.8797 150.879 85.3682 154.015C90.2619 156.8 95.5071 158.882 101.077 159.936C109.215 161.477 116.785 160.18 123.707 155.421C128.654 152.014 133.007 147.932 137.387 143.876C142.443 139.226 147.58 134.63 153.42 130.98C159.882 126.951 166.912 124.329 174.266 122.571C182.458 120.624 190.65 118.813 198.897 117.056C203.98 115.974 209.09 115.055 214.2 114.082C214.524 114.027 214.984 113.892 215.227 113.838C215.552 113.757 215.822 113.703 216.119 113.649C216.498 113.514 217.309 113.352 217.769 113.189C218.093 113.054 218.85 112.919 219.499 112.784C219.499 112.865 219.499 112.973 219.499 113.054C219.553 114.487 218.958 115.893 217.904 116.947ZM115.785 108.106C115.514 103.213 115.082 98.346 113 93.8037C110.621 88.6126 106.565 85.7467 100.996 84.8274C94.696 83.773 88.3693 84.3678 82.0426 84.1786C79.5552 84.0974 77.0678 84.0434 74.5804 83.9352C74.256 83.9352 73.9586 83.8 73.6341 83.746C73.6341 83.6108 73.6071 83.5026 73.6071 83.3674C74.0397 83.1782 74.4723 82.9349 74.9319 82.7726C79.4471 81.3126 84.0975 80.7719 88.8019 80.6908C95.9938 80.5556 103.132 81.0693 110.134 82.8267C117.218 84.6111 120.895 90.1808 122.301 96.5615C123.517 102.05 123.544 107.593 123.409 113.135C123.247 119.083 122.544 124.977 120.354 130.574C118.624 134.981 116.217 138.929 112.027 141.47C107.349 144.309 102.239 144.904 96.886 144.444C90.9378 143.957 85.233 142.308 79.5012 140.848C78.1763 140.497 76.7974 140.307 75.3104 140.01C75.7971 139.01 76.5541 138.956 77.23 139.01C80.9882 139.253 84.7463 139.496 88.4774 139.794C93.1008 140.145 97.7241 141.092 102.374 140.172C105.43 139.577 107.944 138.117 109.62 135.387C112.243 131.142 113.676 126.464 114.649 121.598C115.569 117.137 116.028 112.649 115.785 108.106ZM119.11 73.3367C114.595 70.0111 109.458 69.2271 103.97 69.8219C100.969 70.1463 97.9404 70.1193 94.9123 70.2004C94.4797 70.2275 94.0471 70.0382 93.6145 69.93C93.6145 69.7949 93.5875 69.6867 93.5875 69.5515C93.8037 69.4434 93.993 69.2812 94.2093 69.2541C97.8052 68.6863 101.374 67.9563 104.997 67.5778C109.566 67.1182 114.244 66.956 118.434 69.2C121.003 70.5789 123.382 72.3904 125.734 74.1478C130.709 77.8249 135.873 81.1504 141.74 83.2863C146.526 85.0437 151.474 85.4763 156.53 85.233C162.153 84.9626 167.642 83.6649 173.13 82.4752C176.483 81.7452 179.89 81.0693 183.296 80.6097C185.486 80.3123 187.73 80.2582 189.785 81.3667C190.759 81.9075 190.84 82.286 190.002 82.9889C189.299 83.5567 188.487 84.1245 187.622 84.3137C182.107 85.5574 176.591 86.8282 171.022 87.8556C164.587 89.0452 158.098 89.9374 151.501 89.7752C143.444 89.5589 136.36 86.8282 130.087 81.8263C126.41 78.9604 122.814 76.0674 119.11 73.3367ZM152.988 102.726C153.069 99.7789 154.583 97.7241 156.962 96.4534C159.233 95.2367 161.667 94.2634 164.154 93.5604C170.373 91.776 176.618 90.0997 182.918 88.6126C185.757 87.9367 188.731 87.7475 191.651 87.5312C192.786 87.45 194.003 87.9097 195.166 88.2071C195.463 88.2882 195.679 88.7478 195.706 88.856L195.733 88.9641C195.76 89.1534 195.571 89.4778 195.301 89.586C193.949 90.1808 192.624 90.9108 191.218 91.2082C186.46 92.2085 181.647 93.0467 176.862 93.966C171.697 94.9663 166.425 95.6693 161.721 98.2108C160.423 98.9137 159.882 99.2923 158.774 100.266C158.503 100.509 157.719 101.104 157.043 102.726C156.016 105.051 156.232 106.484 156.935 109.026C157.827 112.216 160.261 113.946 163.857 113.568C166.885 113.243 169.913 112.73 172.914 112.081C183.323 109.837 193.733 107.484 204.142 105.213C205.359 104.943 206.602 104.889 207.846 104.727C207.873 104.862 207.9 104.997 207.927 105.132C207.494 105.294 207.062 105.538 206.575 105.646C199.843 107.322 193.138 109.08 186.379 110.648C181.323 111.837 176.24 112.946 171.13 113.865C167.453 114.541 163.613 115.055 159.936 114.244C157.53 113.703 155.692 112.243 154.691 109.756C153.718 107.484 152.907 105.24 152.988 102.726Z" fill="black"/>
<path d="M165.236 182.675L165.533 182.972C165.209 183.323 165.019 183.648 164.965 183.918C164.911 184.189 164.938 184.459 165.1 184.756C165.263 185.054 165.56 185.405 165.966 185.811L170.346 190.191C171.022 190.867 171.589 191.543 172.049 192.165C172.482 192.786 172.779 193.408 172.941 194.03C173.103 194.706 173.076 195.409 172.86 196.166C172.617 196.923 172.184 197.626 171.508 198.302C171.022 198.789 170.508 199.194 169.94 199.546C169.372 199.897 168.777 200.086 168.102 200.113C167.534 200.14 166.993 200.086 166.506 199.924C166.02 199.762 165.506 199.492 164.992 199.113C164.479 198.708 163.884 198.167 163.208 197.491L158.449 192.732C158.071 192.354 157.773 192.11 157.53 192.002C157.287 191.894 157.07 191.867 156.827 191.975C156.584 192.083 156.286 192.3 155.935 192.624L155.637 192.327C155.881 192.11 156.178 191.813 156.557 191.462C156.935 191.11 157.341 190.705 157.746 190.299C158.125 189.92 158.503 189.542 158.882 189.136C159.26 188.758 159.558 188.433 159.774 188.163L160.072 188.46C159.747 188.812 159.504 189.109 159.396 189.353C159.287 189.596 159.287 189.839 159.396 190.083C159.504 190.326 159.747 190.623 160.126 191.002L165.344 196.22C165.857 196.734 166.371 197.193 166.858 197.545C167.344 197.896 167.831 198.194 168.291 198.356C168.777 198.518 169.237 198.545 169.724 198.41C170.21 198.275 170.697 197.978 171.184 197.464C171.941 196.707 172.346 195.977 172.4 195.22C172.482 194.463 172.292 193.733 171.86 192.976C171.427 192.219 170.859 191.462 170.102 190.705L165.614 186.216C165.182 185.784 164.803 185.486 164.506 185.351C164.181 185.189 163.884 185.162 163.586 185.27C163.289 185.378 162.937 185.595 162.532 185.946L162.234 185.649C162.424 185.459 162.694 185.243 163.019 184.946C163.343 184.648 163.613 184.378 163.857 184.135C164.127 183.864 164.37 183.621 164.614 183.35C164.884 183.053 165.073 182.837 165.236 182.675Z" fill="black"/>
<path d="M169.399 178.105C169.94 177.564 170.4 177.213 170.805 177.051C171.211 176.889 171.589 176.78 171.941 176.699C172.13 176.645 172.292 176.591 172.4 176.564C172.509 176.537 172.59 176.456 172.671 176.402C172.779 176.294 172.779 176.186 172.725 176.023C172.671 175.861 172.536 175.672 172.346 175.402L172.698 175.05C172.86 175.239 173.076 175.456 173.293 175.726C173.536 175.996 173.833 176.321 174.239 176.726C174.644 177.132 175.158 177.673 175.807 178.322L175.456 178.673C174.942 178.213 174.347 177.835 173.698 177.564C173.049 177.294 172.4 177.186 171.752 177.24C171.103 177.294 170.508 177.619 169.94 178.159C169.426 178.673 169.156 179.241 169.129 179.89C169.102 180.539 169.345 181.106 169.832 181.62C170.264 182.053 170.751 182.323 171.265 182.404C171.779 182.485 172.373 182.458 173.022 182.323C173.671 182.188 174.401 182.026 175.212 181.863C176.05 181.674 176.807 181.539 177.537 181.458C178.267 181.377 178.916 181.404 179.538 181.566C180.16 181.728 180.728 182.053 181.269 182.62C181.917 183.269 182.323 183.972 182.431 184.702C182.539 185.432 182.458 186.162 182.161 186.892C181.863 187.622 181.404 188.298 180.782 188.893C180.214 189.461 179.7 189.839 179.268 190.056C178.808 190.272 178.403 190.434 178.051 190.515C177.7 190.596 177.456 190.704 177.321 190.813C177.213 190.921 177.213 191.029 177.267 191.191C177.321 191.353 177.456 191.543 177.646 191.813L177.294 192.164C177.105 191.921 176.834 191.651 176.564 191.353C176.267 191.056 175.888 190.65 175.402 190.164C174.915 189.677 174.32 189.055 173.59 188.325L173.942 187.974C174.617 188.569 175.293 189.028 176.023 189.38C176.753 189.731 177.483 189.893 178.186 189.839C178.889 189.785 179.592 189.434 180.214 188.785C180.566 188.433 180.809 188.055 180.971 187.649C181.133 187.217 181.16 186.784 181.052 186.324C180.944 185.865 180.674 185.405 180.241 184.973C179.836 184.567 179.376 184.297 178.862 184.189C178.349 184.08 177.781 184.053 177.186 184.134C176.564 184.216 175.888 184.351 175.158 184.54C174.374 184.702 173.644 184.864 172.914 184.973C172.211 185.081 171.508 185.054 170.859 184.892C170.21 184.729 169.616 184.378 169.048 183.837C168.426 183.215 168.074 182.566 167.966 181.89C167.858 181.214 167.939 180.539 168.21 179.89C168.48 179.241 168.886 178.646 169.399 178.105Z" fill="black"/>
<path d="M183.188 164.695C183.567 165.155 183.945 165.587 184.351 166.02C184.729 166.425 185.027 166.75 185.243 166.966C185.486 167.209 185.703 167.426 185.919 167.615C186.135 167.804 186.325 167.993 186.487 168.129L186.135 168.48C185.27 167.831 184.54 167.372 183.945 167.101C183.35 166.831 182.783 166.75 182.296 166.885C181.782 166.993 181.242 167.372 180.674 167.939L180.025 168.588L188.65 177.213C189.055 177.619 189.38 177.889 189.677 177.997C189.947 178.132 190.245 178.105 190.542 177.943C190.84 177.781 191.218 177.483 191.651 177.078L191.948 177.375C191.651 177.646 191.272 177.997 190.813 178.43C190.353 178.862 189.92 179.322 189.434 179.782C188.947 180.268 188.487 180.728 188.082 181.16C187.649 181.593 187.325 181.945 187.082 182.242L186.784 181.945C187.19 181.485 187.487 181.133 187.649 180.836C187.812 180.539 187.812 180.268 187.703 179.971C187.595 179.7 187.325 179.349 186.919 178.943L178.267 170.319L177.592 170.995C177.024 171.562 176.672 172.103 176.537 172.617C176.402 173.13 176.483 173.698 176.753 174.293C177.024 174.888 177.483 175.618 178.132 176.483L177.781 176.835C177.646 176.672 177.483 176.456 177.267 176.24C177.051 176.023 176.835 175.807 176.618 175.564C176.402 175.348 176.105 175.05 175.672 174.672C175.266 174.293 174.807 173.915 174.347 173.509C174.78 173.076 175.266 172.617 175.807 172.13C176.321 171.616 176.862 171.103 177.375 170.589C177.889 170.075 178.376 169.589 178.808 169.156C179.241 168.723 179.7 168.264 180.214 167.75C180.728 167.236 181.242 166.723 181.755 166.182C182.296 165.614 182.783 165.155 183.188 164.695Z" fill="black"/>
<path d="M187.893 159.882L201.087 165.695C201.6 165.939 202.006 166.02 202.33 165.966C202.655 165.912 202.898 165.803 203.06 165.668L203.358 165.966C203.087 166.182 202.79 166.452 202.466 166.777C202.141 167.101 201.79 167.426 201.465 167.75C201.033 168.183 200.654 168.561 200.303 168.94C199.951 169.318 199.654 169.616 199.464 169.859L199.167 169.562C199.654 169.021 199.897 168.615 199.87 168.318C199.843 168.02 199.491 167.723 198.762 167.399L188.704 162.775L188.677 162.262L192.732 171.346C193.003 171.968 193.273 172.455 193.543 172.806C193.814 173.158 194.084 173.347 194.327 173.428C194.598 173.509 194.841 173.482 195.139 173.347C195.409 173.212 195.733 172.995 196.058 172.671L196.355 172.968C196.031 173.239 195.706 173.536 195.409 173.833C195.084 174.131 194.814 174.428 194.544 174.699C194.3 174.942 194.084 175.158 193.922 175.347C193.733 175.537 193.597 175.726 193.462 175.888L193.165 175.591C193.327 175.32 193.408 174.996 193.435 174.59C193.435 174.185 193.3 173.644 193.003 172.968L187.46 160.396C187.541 160.315 187.622 160.234 187.73 160.126C187.73 160.045 187.811 159.963 187.893 159.882ZM195.896 164.695L196.193 164.992L191.678 169.508L191.516 169.048L195.896 164.695Z" fill="black"/>
<path d="M27.4819 149.473C27.6982 149.716 27.9956 150.014 28.3471 150.392C28.6985 150.771 29.0771 151.149 29.4285 151.501C29.9152 151.987 30.3748 152.447 30.8345 152.88C31.2941 153.312 31.5915 153.61 31.7808 153.799C32.6459 154.664 33.2408 155.475 33.5922 156.259C33.9437 157.043 34.0519 157.773 33.9437 158.449C33.8356 159.125 33.5111 159.72 32.9974 160.234C32.673 160.558 32.2945 160.802 31.8078 161.045C31.3211 161.261 30.7804 161.369 30.1856 161.342C29.5637 161.315 28.9148 161.153 28.1848 160.802C27.4548 160.45 26.6708 159.882 25.8596 159.044L24.3997 157.584L24.6971 157.287L25.9948 158.584C26.6708 159.26 27.2926 159.666 27.8874 159.801C28.4822 159.936 29.023 159.882 29.5096 159.612C30.0234 159.369 30.51 158.99 30.9697 158.53C31.7537 157.746 32.2134 156.935 32.2945 156.151C32.4026 155.367 32.0241 154.556 31.1589 153.718C30.7263 153.285 30.3478 153.096 30.0504 153.123C29.753 153.15 29.3204 153.447 28.8067 153.961L21.3174 161.45C20.9659 161.802 20.7226 162.126 20.5874 162.37C20.4793 162.613 20.4522 162.856 20.5604 163.073C20.6685 163.316 20.8848 163.586 21.1822 163.938L20.8848 164.235C20.6685 163.965 20.3711 163.667 20.0197 163.289C19.6682 162.91 19.2897 162.532 18.9111 162.153C18.4785 161.721 18.1 161.342 17.7215 160.964C17.343 160.612 17.0456 160.315 16.7752 160.099L17.0726 159.801C17.4241 160.126 17.7215 160.342 17.9648 160.45C18.2082 160.558 18.4245 160.558 18.6678 160.423C18.9111 160.288 19.2085 160.045 19.56 159.693L27.0493 152.204C27.4278 151.825 27.6711 151.528 27.7793 151.284C27.8874 151.041 27.9145 150.825 27.8063 150.582C27.6982 150.338 27.4819 150.041 27.1574 149.716L27.4819 149.473ZM24.67 157.395C25.1567 157.936 25.5622 158.368 25.8326 158.693C26.13 159.017 26.3463 159.315 26.5626 159.558C26.7519 159.801 26.9141 160.017 27.0763 160.234C27.7252 161.099 28.0767 161.856 28.1308 162.505C28.1848 163.154 27.9415 163.857 27.4548 164.614L26.2922 166.533C25.9408 167.047 25.7515 167.453 25.6704 167.75C25.5893 168.047 25.6704 168.291 25.8867 168.507C26.0489 168.669 26.2382 168.75 26.4274 168.777C26.6167 168.804 26.86 168.805 27.1304 168.75L27.1845 169.129C26.6437 169.21 26.1571 169.21 25.7515 169.102C25.3459 168.994 24.9404 168.75 24.5078 168.318C24.0752 167.885 23.8048 167.399 23.7237 166.858C23.6426 166.317 23.8589 165.668 24.3456 164.911L25.5622 163.1C25.9137 162.586 26.1841 162.099 26.3734 161.667C26.5897 161.234 26.6708 160.829 26.6708 160.45C26.6437 160.072 26.4545 159.693 26.0759 159.314L24.4537 157.692L24.67 157.395Z" fill="black"/>
<path d="M31.5915 175.429C30.5641 174.401 29.9152 173.293 29.6448 172.103C29.3744 170.913 29.4826 169.697 29.9422 168.48C30.4289 167.236 31.267 166.047 32.4837 164.857L41.1085 173.482L40.8382 173.806L34.0248 166.993C32.9974 167.939 32.2133 168.913 31.6726 169.94C31.1319 170.967 30.9156 171.968 30.9426 172.887C30.9967 173.833 31.3481 174.617 31.997 175.266C32.6459 175.915 33.403 176.24 34.2681 176.267C35.1333 176.294 36.0796 176.05 37.08 175.537C38.0804 175.023 39.0807 174.266 40.0811 173.266C41.2437 172.103 42.0819 170.967 42.5956 169.859C43.1093 168.75 43.2985 167.696 43.1904 166.723C43.0822 165.749 42.6767 164.911 41.9737 164.208C41.1085 163.343 40.0811 162.937 38.8915 162.965C37.7019 163.019 36.5122 163.478 35.3226 164.397L34.9711 164.046C35.9174 163.1 36.6474 162.343 37.1611 161.829C37.6748 161.288 38.1074 160.829 38.4319 160.45L38.7833 160.802C38.3778 161.288 38.1885 161.64 38.1615 161.829C38.1344 162.018 38.3237 162.153 38.6752 162.262C38.9456 162.343 39.297 162.424 39.6756 162.505C40.0811 162.586 40.5407 162.775 41.0544 163.046C41.5681 163.316 42.1089 163.749 42.7037 164.316C43.7311 165.344 44.407 166.479 44.7044 167.669C45.0019 168.859 44.9207 170.075 44.4881 171.292C44.0556 172.509 43.2715 173.698 42.1089 174.861C40.9463 176.023 39.7567 176.807 38.513 177.213C37.2693 177.646 36.0526 177.7 34.863 177.402C33.7274 177.105 32.6189 176.456 31.5915 175.429Z" fill="black"/>
<path d="M42.163 185.405L40.6489 186.162C40.8381 186.27 41.0274 186.379 41.2167 186.514C41.4059 186.649 41.5952 186.811 41.7844 187C42.1089 187.325 42.2711 187.622 42.3252 187.92C42.3793 188.217 42.2711 188.487 42.0548 188.731C41.7844 189.001 41.433 189.136 41.0815 189.109C40.703 189.082 40.3244 188.947 39.973 188.758C39.5944 188.542 39.27 188.298 38.9726 187.974C38.6752 187.676 38.4319 187.406 38.2696 187.163C38.0804 186.919 37.9452 186.676 37.837 186.487L38.1885 186.297C38.2156 186.352 38.2967 186.46 38.4048 186.568C38.513 186.703 38.6211 186.838 38.7833 186.973C38.9726 187.163 39.2159 187.352 39.4593 187.514C39.7026 187.676 39.9459 187.785 40.1893 187.839C40.4326 187.893 40.6489 187.839 40.8111 187.649C40.9463 187.514 41.0004 187.352 40.9463 187.163C40.8922 186.973 40.757 186.784 40.5678 186.595C40.4867 186.514 40.3785 186.406 40.2163 186.297C40.0541 186.162 39.9189 186.081 39.7837 186.027L41.8656 184.973L42.163 185.405ZM52.437 174.077C52.9778 174.617 53.3293 175.077 53.4915 175.483C53.6537 175.888 53.7619 176.267 53.843 176.618C53.897 176.807 53.9511 176.97 53.9781 177.078C54.0052 177.186 54.0863 177.267 54.1404 177.348C54.2485 177.456 54.3567 177.456 54.5189 177.402C54.6811 177.348 54.8704 177.213 55.1407 177.024L55.4922 177.375C55.303 177.537 55.0867 177.754 54.8163 177.97C54.5459 178.213 54.2215 178.511 53.8159 178.916C53.4104 179.322 52.8696 179.836 52.2207 180.485L51.8693 180.133C52.3289 179.619 52.7074 179.025 52.9778 178.376C53.2481 177.727 53.3563 177.078 53.3022 176.429C53.2481 175.78 52.9237 175.185 52.383 174.617C51.8693 174.104 51.3015 173.833 50.6526 173.806C50.0037 173.779 49.4359 174.023 48.9222 174.509C48.4896 174.942 48.2193 175.429 48.1381 175.942C48.057 176.456 48.0841 177.051 48.2193 177.7C48.3544 178.349 48.5167 179.079 48.6789 179.89C48.8681 180.728 49.0033 181.485 49.0844 182.215C49.1656 182.945 49.1385 183.594 48.9763 184.216C48.8141 184.837 48.4896 185.405 47.9218 185.946C47.273 186.595 46.57 187 45.84 187.109C45.11 187.217 44.38 187.136 43.65 186.838C42.92 186.541 42.2441 186.081 41.6493 185.459C41.0815 184.892 40.703 184.378 40.4867 183.945C40.2704 183.513 40.1081 183.08 40.027 182.729C39.9459 182.377 39.8378 182.134 39.7296 181.999C39.6215 181.89 39.5133 181.89 39.3511 181.945C39.1889 181.999 38.9996 182.134 38.7293 182.323L38.3778 181.972C38.6211 181.782 38.8915 181.512 39.1889 181.242C39.4863 180.944 39.8918 180.566 40.3785 180.079C40.8652 179.592 41.487 178.997 42.217 178.267L42.5685 178.619C41.9737 179.295 41.5141 179.971 41.1626 180.701C40.8111 181.431 40.6489 182.161 40.73 182.864C40.7841 183.567 41.1356 184.27 41.7844 184.892C42.1359 185.243 42.5144 185.486 42.92 185.649C43.3526 185.811 43.7852 185.838 44.2448 185.73C44.7044 185.622 45.1641 185.351 45.5967 184.919C46.0022 184.513 46.2726 184.053 46.3807 183.54C46.4889 183.026 46.5159 182.458 46.4348 181.863C46.3537 181.242 46.2185 180.566 46.0293 179.836C45.867 179.052 45.7048 178.322 45.5967 177.592C45.4885 176.889 45.5156 176.186 45.6778 175.537C45.84 174.888 46.1915 174.293 46.7322 173.725C47.3541 173.103 48.003 172.752 48.6789 172.644C49.3548 172.536 50.0307 172.617 50.6796 172.887C51.3285 173.157 51.8963 173.536 52.437 174.077Z" fill="black"/>
<path d="M61.6837 183.567L55.8708 196.761C55.6274 197.275 55.5463 197.68 55.6004 198.005C55.6545 198.329 55.7626 198.572 55.8978 198.735L55.6004 199.032C55.3841 198.762 55.1137 198.464 54.7893 198.14C54.4648 197.815 54.1404 197.464 53.8159 197.139C53.3834 196.707 53.0048 196.328 52.6263 195.977C52.2478 195.625 51.9504 195.328 51.7071 195.139L52.0045 194.841C52.5452 195.328 52.9508 195.571 53.2482 195.544C53.5456 195.517 53.843 195.166 54.1674 194.436L58.7908 184.378L59.3045 184.351L50.22 188.406C49.5982 188.677 49.1115 188.947 48.76 189.217C48.4356 189.488 48.2193 189.758 48.1382 190.002C48.0571 190.272 48.0841 190.515 48.2193 190.813C48.3545 191.083 48.5708 191.407 48.8952 191.732L48.5978 192.029C48.3274 191.705 48.03 191.38 47.7326 191.083C47.4352 190.759 47.1378 190.488 46.8674 190.218C46.6241 189.975 46.4078 189.758 46.2185 189.596C46.0293 189.407 45.84 189.272 45.6778 189.136L45.9752 188.839C46.2456 189.001 46.57 189.082 46.9756 189.109C47.3811 189.109 47.9219 188.974 48.5978 188.677L61.17 183.134C61.2511 183.215 61.3322 183.296 61.4404 183.405C61.5215 183.405 61.6026 183.486 61.6837 183.567ZM56.8711 191.57L56.5737 191.867L52.0585 187.352L52.5182 187.19L56.8711 191.57Z" fill="black"/>
<path d="M70.8223 192.813C72.6878 194.679 73.6341 196.517 73.6341 198.329C73.6341 200.14 72.796 201.898 71.1197 203.574C70.0112 204.683 68.8486 205.413 67.5778 205.791C66.3071 206.17 65.0363 206.17 63.7386 205.764C62.4408 205.386 61.1971 204.574 60.0075 203.385C59.8452 203.223 59.656 203.033 59.4126 202.763C59.1693 202.493 58.8989 202.222 58.6286 201.952C58.3582 201.681 58.1149 201.438 57.8986 201.195C57.52 200.816 57.1415 200.438 56.763 200.086C56.3845 199.735 56.0871 199.437 55.8167 199.221L56.1141 198.924C56.4656 199.248 56.763 199.464 57.0063 199.573C57.2497 199.681 57.466 199.681 57.7093 199.546C57.9526 199.41 58.25 199.167 58.6015 198.816L66.0908 191.326C66.4693 190.948 66.7126 190.65 66.8208 190.407C66.9289 190.164 66.956 189.947 66.8478 189.704C66.7397 189.461 66.5234 189.163 66.1989 188.839L66.4963 188.542C66.7126 188.785 67.01 189.109 67.3615 189.488C67.713 189.866 68.0645 190.245 68.443 190.596C68.8215 190.948 69.2271 191.353 69.6867 191.786C70.1734 192.164 70.5249 192.543 70.8223 192.813ZM70.2815 192.84C69.8219 192.381 69.4163 192.164 69.1189 192.192C68.7945 192.219 68.3889 192.489 67.8752 193.03L60.3049 200.6C59.7912 201.114 59.4938 201.546 59.4938 201.871C59.4667 202.195 59.683 202.574 60.1426 203.033C61.17 204.061 62.1434 204.656 63.1167 204.818C64.09 204.98 65.0634 204.791 66.0637 204.277C67.0641 203.736 68.1186 202.925 69.2 201.817C70.3356 200.681 71.1467 199.627 71.6334 198.626C72.12 197.626 72.2552 196.68 72.066 195.733C71.8497 194.76 71.2549 193.814 70.2815 192.84Z" fill="black"/>
<path d="M167.858 23.6426C168.534 24.3185 168.967 24.9404 169.21 25.5893C169.453 26.2111 169.589 26.833 169.67 27.4278C169.724 27.7793 169.859 27.9415 170.075 27.9415C170.292 27.9415 170.643 27.7252 171.13 27.3467L171.481 27.6982C171.076 28.0497 170.589 28.5093 170.048 29.023C169.507 29.5637 168.777 30.2667 167.885 31.1589L167.534 30.8074C167.912 30.2937 168.21 29.8611 168.426 29.5097C168.642 29.1582 168.804 28.8337 168.886 28.5363C168.994 28.2389 169.048 27.8874 169.048 27.5089C169.129 26.86 169.021 26.2382 168.75 25.6434C168.48 25.0485 168.129 24.5348 167.642 24.0482C167.128 23.5345 166.533 23.21 165.884 23.0748C165.236 22.9397 164.533 22.9667 163.803 23.183C163.073 23.3993 162.289 23.7508 161.504 24.2374C160.72 24.7511 159.936 25.373 159.179 26.13C158.395 26.9141 157.746 27.6982 157.26 28.5093C156.773 29.2934 156.449 30.0774 156.259 30.8074C156.097 31.5645 156.07 32.2404 156.232 32.9163C156.394 33.5652 156.719 34.16 157.233 34.6467C157.638 35.0522 158.152 35.4037 158.774 35.6741C159.396 35.9445 159.99 36.0526 160.585 35.9715C161.18 35.9445 161.694 35.8093 162.18 35.5389C162.667 35.2685 163.262 34.8359 163.992 34.2411L164.343 34.5926C163.424 35.5119 162.667 36.2689 162.126 36.8637C161.559 37.4315 161.099 37.9452 160.72 38.3508L160.369 37.9993C160.774 37.5126 160.964 37.1882 160.991 36.9719C161.018 36.7556 160.829 36.6204 160.477 36.5393C159.855 36.4311 159.206 36.2689 158.612 36.0526C157.99 35.8363 157.368 35.4037 156.719 34.7278C155.719 33.7274 155.07 32.6459 154.745 31.4563C154.421 30.2667 154.475 29.0771 154.88 27.8334C155.286 26.6167 156.07 25.4271 157.206 24.2645C158.341 23.1289 159.531 22.3719 160.802 21.9393C162.072 21.5337 163.316 21.4526 164.533 21.723C165.776 22.0204 166.885 22.6693 167.858 23.6426Z" fill="black"/>
<path d="M177.132 33.3489L176.834 33.6464C176.483 33.3219 176.186 33.0786 175.942 32.9704C175.699 32.8623 175.456 32.8623 175.212 32.9704C174.969 33.0786 174.672 33.3219 174.293 33.7004L166.723 41.2708C166.371 41.6223 166.155 41.8926 166.047 42.136C165.939 42.3523 165.939 42.5956 166.047 42.8119C166.155 43.0282 166.371 43.2986 166.669 43.623L167.642 44.5964C168.074 45.0289 168.507 45.3264 168.913 45.5156C169.318 45.7049 169.751 45.759 170.21 45.7319C170.643 45.7049 171.13 45.5427 171.616 45.2723C172.103 45.0019 172.644 44.6504 173.212 44.1908L173.563 44.5423C173.212 44.8397 172.779 45.2452 172.238 45.7589C172.049 45.9482 171.752 46.2727 171.373 46.6782C170.995 47.0838 170.616 47.5164 170.265 47.976C169.778 47.4352 169.21 46.8404 168.561 46.1915C167.912 45.5426 167.345 44.9749 166.858 44.4612C166.615 44.2178 166.317 43.9204 165.966 43.569C165.614 43.2175 165.209 42.8119 164.776 42.4064C164.343 42.0008 163.911 41.5682 163.478 41.1626C163.046 40.7301 162.613 40.3245 162.234 39.946L162.532 39.6486C162.883 39.973 163.181 40.1893 163.424 40.2975C163.667 40.4056 163.884 40.4056 164.127 40.2704C164.37 40.1352 164.668 39.8919 165.019 39.5404L172.509 32.0512C172.887 31.6727 173.13 31.3752 173.239 31.1319C173.347 30.8886 173.374 30.6723 173.266 30.429C173.157 30.1856 172.941 29.8882 172.617 29.5638L172.914 29.2664C173.13 29.5097 173.428 29.8071 173.779 30.1856C174.131 30.5641 174.536 30.9697 174.942 31.3752C175.32 31.7538 175.699 32.1323 176.105 32.5108C176.564 32.8082 176.889 33.1056 177.132 33.3489Z" fill="black"/>
<path d="M186.568 42.6496L180.755 55.8437C180.512 56.3574 180.43 56.763 180.484 57.0874C180.539 57.4119 180.647 57.6552 180.782 57.8174L180.484 58.1148C180.268 57.8444 179.998 57.547 179.673 57.2226C179.349 56.8982 179.024 56.5467 178.7 56.2222C178.267 55.7896 177.889 55.4111 177.51 55.0596C177.132 54.7082 176.834 54.4107 176.591 54.2215L176.889 53.9241C177.429 54.4107 177.835 54.6541 178.132 54.627C178.43 54.6 178.727 54.2485 179.052 53.5185L183.675 43.4607L184.189 43.4337L175.104 47.4893C174.482 47.7596 173.996 48.03 173.644 48.3004C173.32 48.5707 173.103 48.8411 173.022 49.0844C172.941 49.3548 172.968 49.5982 173.103 49.8956C173.239 50.1659 173.455 50.4904 173.779 50.8148L173.482 51.1122C173.212 50.7878 172.914 50.4633 172.617 50.1659C172.319 49.8415 172.022 49.5711 171.752 49.3007C171.508 49.0574 171.292 48.8411 171.103 48.6789C170.913 48.4896 170.724 48.3544 170.562 48.2193L170.859 47.9218C171.13 48.0841 171.454 48.1652 171.86 48.1922C172.265 48.1922 172.806 48.057 173.482 47.7596L186.054 42.217C186.135 42.2982 186.216 42.3793 186.324 42.4874C186.406 42.4874 186.487 42.5685 186.568 42.6496ZM181.755 50.6526L181.458 50.95L176.943 46.4348L177.402 46.2726L181.755 50.6526Z" fill="black"/>
<path d="M195.301 51.1394C195.842 51.6801 196.193 52.1397 196.355 52.5453C196.517 52.9508 196.626 53.3293 196.707 53.6808C196.761 53.8701 196.815 54.0323 196.842 54.1405C196.869 54.2486 196.95 54.3297 197.004 54.4108C197.112 54.519 197.22 54.519 197.383 54.4649C197.545 54.4108 197.734 54.2756 198.004 54.0864L198.356 54.4379C198.167 54.6001 197.95 54.8164 197.68 55.0327C197.41 55.276 197.085 55.5734 196.68 55.979C196.274 56.3845 195.733 56.8982 195.084 57.5471L194.733 57.1956C195.193 56.6819 195.571 56.0871 195.842 55.4382C196.112 54.7894 196.22 54.1405 196.166 53.4916C196.112 52.8427 195.787 52.2479 195.247 51.6801C194.733 51.1664 194.165 50.896 193.516 50.869C192.867 50.8419 192.3 51.0853 191.786 51.5719C191.353 52.0045 191.083 52.4912 191.002 53.0049C190.921 53.5186 190.948 54.1134 191.083 54.7623C191.218 55.4112 191.38 56.1412 191.543 56.9523C191.732 57.7905 191.867 58.5475 191.948 59.2775C192.029 60.0075 192.002 60.6564 191.84 61.2782C191.678 61.9001 191.353 62.4679 190.786 63.0086C190.137 63.6575 189.434 64.063 188.704 64.1712C187.974 64.2793 187.244 64.1982 186.514 63.9008C185.784 63.6034 185.108 63.1438 184.513 62.5219C183.945 61.9542 183.567 61.4405 183.35 61.0079C183.134 60.5482 182.972 60.1427 182.891 59.7912C182.81 59.4397 182.702 59.1964 182.593 59.0612C182.485 58.9531 182.377 58.953 182.215 59.0071C182.053 59.0612 181.863 59.1964 181.593 59.3856L181.242 59.0342C181.485 58.8449 181.755 58.5745 182.053 58.3042C182.35 58.0068 182.756 57.6282 183.242 57.1416C183.729 56.6549 184.351 56.0601 185.081 55.3301L185.432 55.6816C184.837 56.3575 184.378 57.0334 184.026 57.7634C183.675 58.4934 183.513 59.2234 183.594 59.9264C183.648 60.6294 183.999 61.3323 184.648 61.9542C185 62.3056 185.378 62.549 185.784 62.7112C186.216 62.8734 186.649 62.9005 187.109 62.7923C187.568 62.6842 188.028 62.4138 188.46 61.9812C188.866 61.5756 189.136 61.116 189.244 60.6023C189.353 60.0886 189.38 59.5208 189.299 58.926C189.217 58.3042 189.082 57.6282 188.893 56.8982C188.731 56.1142 188.569 55.3842 188.46 54.6542C188.352 53.9512 188.379 53.2482 188.542 52.5993C188.704 51.9505 189.055 51.3556 189.596 50.7879C190.218 50.166 190.867 49.8145 191.543 49.7064C192.219 49.5982 192.894 49.6793 193.543 49.9497C194.192 50.2201 194.787 50.6256 195.301 51.1394Z" fill="black"/>
<path d="M203.682 59.5208C204.223 60.0616 204.574 60.5212 204.737 60.9267C204.899 61.3323 205.007 61.7108 205.088 62.0623C205.142 62.2516 205.196 62.4138 205.223 62.5219C205.25 62.6301 205.332 62.7112 205.386 62.7923C205.494 62.9004 205.602 62.9004 205.764 62.8464C205.926 62.7923 206.116 62.6571 206.386 62.4679L206.737 62.8193C206.548 62.9816 206.332 63.1979 206.062 63.4142C205.791 63.6575 205.467 63.9549 205.061 64.3604C204.656 64.766 204.115 65.2797 203.466 65.9286L203.114 65.5771C203.574 65.0634 203.953 64.4686 204.223 63.8197C204.493 63.1708 204.601 62.5219 204.547 61.873C204.493 61.2241 204.169 60.6293 203.628 60.0616C203.114 59.5479 202.547 59.2775 201.898 59.2505C201.249 59.2234 200.681 59.4667 200.167 59.9534C199.735 60.386 199.464 60.8727 199.383 61.3864C199.302 61.9001 199.329 62.4949 199.464 63.1438C199.6 63.7927 199.762 64.5227 199.924 65.3338C200.113 66.1719 200.249 66.929 200.33 67.659C200.411 68.389 200.384 69.0379 200.221 69.6597C200.059 70.2816 199.735 70.8493 199.167 71.3901C198.518 72.039 197.815 72.4445 197.085 72.5527C196.355 72.6608 195.625 72.5797 194.895 72.2823C194.165 71.9849 193.489 71.5253 192.894 70.9034C192.327 70.3356 191.948 69.8219 191.732 69.3893C191.516 68.9297 191.353 68.5242 191.272 68.1727C191.191 67.8212 191.083 67.5779 190.975 67.4427C190.867 67.3345 190.759 67.3345 190.596 67.3886C190.434 67.4427 190.245 67.5779 189.974 67.7671L189.623 67.4156C189.866 67.2264 190.137 66.956 190.434 66.6856C190.732 66.3882 191.137 66.0097 191.624 65.523C192.11 65.0364 192.732 64.4416 193.462 63.7116L193.814 64.063C193.219 64.739 192.759 65.4149 192.408 66.1449C192.056 66.8749 191.894 67.6049 191.975 68.3079C192.029 69.0108 192.381 69.7138 193.03 70.3356C193.381 70.6871 193.76 70.9304 194.165 71.0927C194.598 71.2549 195.03 71.2819 195.49 71.1738C195.95 71.0656 196.409 70.7953 196.842 70.3627C197.247 69.9571 197.518 69.4975 197.626 68.9838C197.734 68.4701 197.761 67.9023 197.68 67.3075C197.599 66.6856 197.464 66.0097 197.274 65.2797C197.112 64.4956 196.95 63.7656 196.842 63.0356C196.734 62.3327 196.761 61.6297 196.923 60.9808C197.085 60.3319 197.437 59.7371 197.977 59.1693C198.599 58.5475 199.248 58.196 199.924 58.0879C200.6 57.9797 201.276 58.0608 201.925 58.3312C202.574 58.6016 203.169 59.0071 203.682 59.5208Z" fill="black"/>
<path d="M23.5345 58.5475L23.8319 58.8449C23.5074 59.1964 23.2911 59.4938 23.183 59.7371C23.0748 59.9804 23.0748 60.1967 23.21 60.4401C23.3182 60.6834 23.5885 60.9808 23.94 61.3593L31.4293 68.8486C31.7808 69.2001 32.1052 69.4434 32.3215 69.5786C32.5648 69.7138 32.7811 69.7138 33.0245 69.6056C33.2678 69.4975 33.5652 69.2812 33.9167 68.9567L34.2141 69.2542C33.9437 69.4975 33.6193 69.7949 33.2408 70.1464C32.8622 70.5249 32.4837 70.8764 32.1052 71.2819C31.6726 71.7145 31.2941 72.093 30.9156 72.4716C30.537 72.8501 30.2667 73.1475 30.0504 73.3908L29.753 73.0934C30.0774 72.7419 30.2937 72.4175 30.4019 72.2012C30.51 71.9579 30.51 71.7145 30.4019 71.4712C30.2937 71.2279 30.0504 70.9304 29.6719 70.5519L21.3985 62.2786L21.5067 62.2245L27.6982 75.8512L27.4548 76.0945L13.7741 70.2275L21.5067 77.9601C21.9393 78.3927 22.2908 78.6901 22.5882 78.8523C22.8856 79.0416 23.183 79.0686 23.4804 78.9604C23.7778 78.8523 24.1563 78.609 24.5889 78.2304L24.8863 78.5279C24.67 78.6901 24.4267 78.9334 24.1022 79.2308C23.8048 79.5282 23.5074 79.7986 23.2641 80.069C23.0208 80.3123 22.7504 80.5827 22.507 80.826C22.2637 81.0964 22.0745 81.3127 21.9122 81.4749L21.6148 81.1775C21.9122 80.826 22.1015 80.5016 22.1826 80.2312C22.2637 79.9608 22.2096 79.6904 22.0474 79.393C21.8852 79.0956 21.5878 78.7441 21.1822 78.3386L14.0174 71.1738C13.6389 70.7953 13.3415 70.5519 13.0982 70.4438C12.8548 70.3356 12.6115 70.3356 12.3952 70.4167C12.1519 70.5249 11.8815 70.7412 11.53 71.0656L11.2326 70.7682C11.3948 70.606 11.6111 70.4167 11.8815 70.1734C12.1519 69.9301 12.3952 69.6867 12.6656 69.4434C12.963 69.146 13.2604 68.8486 13.5308 68.5512C13.8282 68.2538 14.0715 67.9834 14.2608 67.7671L26.1841 73.0123L26.103 73.499L20.6415 61.4675C20.7767 61.3323 20.9119 61.1971 21.047 61.0619C21.1822 60.9267 21.3174 60.7916 21.4796 60.6293C21.8582 60.2508 22.2367 59.8723 22.5882 59.4667C22.9937 59.1423 23.2911 58.8179 23.5345 58.5475Z" fill="black"/>
<path d="M29.1852 52.7886L42.3793 58.6015C42.893 58.8449 43.2985 58.926 43.623 58.8719C43.9474 58.8178 44.1908 58.7097 44.353 58.5745L44.6504 58.8719C44.38 59.0882 44.0826 59.3586 43.7582 59.683C43.4337 60.0075 43.0823 60.3319 42.7578 60.6564C42.3252 61.0889 41.9467 61.4675 41.5952 61.846C41.2437 62.2245 40.9463 62.5219 40.7571 62.7652L40.4597 62.4678C40.9463 61.9271 41.1897 61.5215 41.1626 61.2241C41.1356 60.9267 40.7841 60.6293 40.0541 60.3049L29.9693 55.6815L29.9423 55.1678L33.9978 64.2523C34.2682 64.8741 34.5385 65.3608 34.8089 65.7123C35.0793 66.0367 35.3497 66.253 35.593 66.3341C35.8634 66.4152 36.1067 66.3882 36.4041 66.253C36.6745 66.1178 36.9989 65.9015 37.3234 65.5771L37.6208 65.8745C37.2963 66.1449 36.9719 66.4423 36.6745 66.7397C36.35 67.0371 36.0797 67.3345 35.8093 67.6049C35.566 67.8482 35.3497 68.0645 35.1874 68.2538C34.9982 68.443 34.863 68.6323 34.7278 68.7945L34.4304 68.4971C34.5926 68.2267 34.6737 67.9023 34.7008 67.4967C34.7008 67.0912 34.5656 66.5504 34.2682 65.8745L28.7256 53.3023C28.8067 53.2212 28.8878 53.1401 28.996 53.0319C29.023 52.9508 29.1041 52.8697 29.1852 52.7886ZM37.1882 57.6282L37.4856 57.9256L32.9704 62.4138L32.8082 61.9541L37.1882 57.6282Z" fill="black"/>
<path d="M37.6478 44.0827C38.1885 43.5419 38.6481 43.1904 39.0537 43.0282C39.4593 42.866 39.8378 42.7578 40.1893 42.6767C40.3785 42.6227 40.5407 42.5686 40.6489 42.5415C40.757 42.5145 40.8381 42.4334 40.9192 42.3793C41.0274 42.2712 41.0274 42.163 40.9733 42.0008C40.9193 41.8386 40.7841 41.6493 40.5948 41.379L40.9463 41.0275C41.1085 41.2167 41.3248 41.433 41.5411 41.7034C41.7844 41.9738 42.0818 42.2982 42.4874 42.7038C42.893 43.1093 43.4067 43.6501 44.0555 44.2989L43.7041 44.6504C43.1904 44.1908 42.5956 43.8123 41.9467 43.5419C41.2978 43.2715 40.6489 43.1634 40 43.2175C39.3511 43.2715 38.7563 43.596 38.1885 44.1367C37.6748 44.6504 37.4044 45.2182 37.3774 45.8671C37.3504 46.516 37.5937 47.0838 38.0804 47.5975C38.513 48.0301 38.9996 48.3004 39.5133 48.3815C40.027 48.4627 40.6218 48.4356 41.2707 48.3004C41.9196 48.1652 42.6496 48.003 43.4607 47.8408C44.2989 47.6515 45.0559 47.5164 45.7859 47.4352C46.5159 47.3541 47.1648 47.3812 47.7867 47.5434C48.4085 47.7056 48.9763 48.0301 49.517 48.5978C50.1659 49.2467 50.5715 49.9497 50.6796 50.6797C50.7878 51.4097 50.7067 52.1397 50.4093 52.8697C50.1118 53.5997 49.6522 54.2756 49.0304 54.8704C48.4626 55.4382 47.9489 55.8167 47.5163 56.033C47.0567 56.2493 46.6511 56.4115 46.2996 56.4927C45.9481 56.5738 45.7048 56.6819 45.5696 56.7901C45.4615 56.8982 45.4615 57.0064 45.5155 57.1686C45.5696 57.3308 45.7048 57.5201 45.8941 57.7904L45.5426 58.1419C45.3533 57.8986 45.083 57.6282 44.8126 57.3308C44.5152 57.0334 44.1367 56.6278 43.65 56.1412C43.1633 55.6545 42.5685 55.0327 41.8385 54.3027L42.19 53.9512C42.8659 54.546 43.5418 55.0056 44.2718 55.3571C45.0018 55.7086 45.7318 55.8708 46.4348 55.7897C47.1378 55.7356 47.8407 55.3841 48.4626 54.7352C48.8141 54.3838 49.0574 54.0052 49.2196 53.5727C49.3818 53.1401 49.4089 52.7075 49.3007 52.2478C49.1926 51.7882 48.9222 51.3286 48.4896 50.896C48.0841 50.4904 47.6244 50.2201 47.1107 50.1119C46.597 50.0038 46.0293 49.9767 45.4344 50.0578C44.8126 50.139 44.1367 50.2741 43.4067 50.4634C42.6226 50.6256 41.8926 50.7878 41.1626 50.896C40.4596 51.0041 39.7567 50.9771 39.1078 50.8149C38.4589 50.6527 37.8641 50.3012 37.2963 49.7604C36.6744 49.1386 36.323 48.4897 36.2148 47.8138C36.1067 47.1378 36.1878 46.4619 36.4581 45.813C36.7285 45.1912 37.1341 44.5964 37.6478 44.0827Z" fill="black"/>
<path d="M51.4367 30.6722C51.8152 31.1319 52.1937 31.5645 52.5993 31.9971C52.9778 32.4026 53.2752 32.7271 53.4915 32.9434C53.7348 33.1867 53.9511 33.403 54.1674 33.5922C54.3837 33.7815 54.573 33.9708 54.7352 34.1059L54.3837 34.4574C53.5185 33.8085 52.7885 33.3489 52.1937 33.0785C51.5989 32.8082 51.0311 32.7271 50.5445 32.8622C50.0308 32.9704 49.49 33.3489 48.9222 33.9167L48.2734 34.5656L56.8982 43.1904C57.3037 43.5959 57.6282 43.8663 57.9256 43.9745C58.1959 44.1097 58.4934 44.0826 58.7908 43.9204C59.0882 43.7582 59.4667 43.4608 59.8993 43.0552L60.1967 43.3526C59.8993 43.623 59.5208 43.9745 59.0611 44.4071C58.6015 44.8396 58.1689 45.2993 57.6822 45.7589C57.1956 46.2456 56.7359 46.7052 56.3304 47.1378C55.8978 47.5704 55.5734 47.9219 55.33 48.2193L55.0326 47.9219C55.4382 47.4622 55.7356 47.1108 55.8978 46.8134C56.06 46.5159 56.06 46.2456 55.9519 45.9482C55.8437 45.6778 55.5734 45.3263 55.1678 44.9208L46.543 36.2959L45.8671 36.9719C45.2993 37.5396 44.9478 38.0804 44.8126 38.5941C44.6774 39.1078 44.7585 39.6756 45.0289 40.2704C45.2993 40.8652 45.7589 41.5952 46.4078 42.4604L46.0563 42.8119C45.9211 42.6496 45.7589 42.4334 45.5426 42.2171C45.3263 42.0008 45.11 41.7845 44.8937 41.5411C44.6774 41.3248 44.38 41.0274 43.9474 40.6489C43.5419 40.2704 43.0822 39.8919 42.6226 39.4863C43.0552 39.0537 43.5419 38.5941 44.0826 38.1074C44.5963 37.5937 45.1371 37.08 45.6508 36.5663C46.1645 36.0526 46.6511 35.5659 47.0837 35.1334C47.5163 34.7008 47.9759 34.2411 48.4897 33.7274C49.0034 33.2137 49.5171 32.7 50.0308 32.1593C50.5445 31.5645 51.0311 31.1048 51.4367 30.6722Z" fill="black"/>
<path d="M60.1697 21.9122C60.5211 22.3448 60.8456 22.7233 61.1971 23.1019C61.5486 23.4804 61.8189 23.7507 62.0082 23.94C62.1974 24.1293 62.3867 24.3185 62.576 24.4807C62.7652 24.643 62.9004 24.7782 63.0356 24.8863L62.6841 25.2378C61.9811 24.67 61.3593 24.2645 60.8186 24.0482C60.3049 23.8319 59.8182 23.7778 59.3856 23.913C58.953 24.0482 58.4663 24.3726 57.9526 24.8863L56.8982 25.9407C56.5737 26.2652 56.3574 26.5356 56.2493 26.7519C56.1411 26.9682 56.1411 27.1845 56.2493 27.4278C56.3574 27.6441 56.5737 27.9415 56.9252 28.293L64.5497 35.9174C64.9011 36.2689 65.1715 36.4852 65.4149 36.5933C65.6582 36.7015 65.8745 36.7015 66.0908 36.5933C66.3071 36.4852 66.5774 36.2689 66.9019 35.9445L67.8752 34.9711C68.443 34.4033 68.8215 33.8626 68.9837 33.3219C69.146 32.8082 69.0919 32.2404 68.8756 31.6456C68.6323 31.0507 68.1997 30.3478 67.5778 29.5637L67.9293 29.2122C68.1997 29.5367 68.5511 29.9422 69.0378 30.4019C69.2271 30.5911 69.5515 30.8885 69.93 31.267C70.3356 31.6456 70.7411 31.997 71.2008 32.3756C70.66 32.8622 70.0652 33.43 69.4163 34.0789C68.7674 34.7278 68.1997 35.2956 67.686 35.7822C67.4426 36.0256 67.1452 36.323 66.7937 36.6745C66.4423 37.0259 66.0367 37.4315 65.6311 37.8641C65.2256 38.2967 64.793 38.7293 64.3874 39.1619C63.9549 39.5944 63.5493 40.027 63.1708 40.4056L62.8734 40.1082C63.1978 39.7567 63.4141 39.4593 63.5223 39.2159C63.6304 38.9726 63.6304 38.7563 63.4952 38.513C63.36 38.2696 63.1167 37.9722 62.7652 37.6208L55.276 30.1315C54.8974 29.753 54.6 29.5096 54.3567 29.4015C54.1134 29.2933 53.87 29.2933 53.6537 29.3745C53.4104 29.4826 53.14 29.6989 52.7886 30.0233L52.4911 29.7259C52.8967 29.3474 53.3023 28.9419 53.7348 28.5093C54.1674 28.0767 54.6 27.6711 55.0326 27.2656C55.4652 26.86 55.8437 26.4545 56.2223 26.103C56.5737 25.7515 56.8711 25.4541 57.1145 25.2107C57.5741 24.7511 58.1149 24.2104 58.6826 23.6156C59.2234 22.9396 59.7371 22.3989 60.1697 21.9122ZM62.8463 29.5907L63.1437 29.8882L60.413 32.6189L60.1156 32.3215L62.8463 29.5907ZM61.2782 27.1574C61.8189 27.7793 62.2245 28.2389 62.5489 28.5363C62.8463 28.8337 63.1437 29.1041 63.3871 29.3474C63.6304 29.5907 63.9278 29.8611 64.2252 30.1585C64.5497 30.4559 65.0093 30.8615 65.6041 31.4022L65.2526 31.7537C64.8741 31.4833 64.4956 31.213 64.09 30.9967C63.7115 30.7804 63.306 30.6722 62.9004 30.6722C62.4949 30.6993 62.0893 30.9156 61.6567 31.3482L61.3593 31.0507C61.6837 30.7263 61.873 30.4019 61.9271 30.0774C61.9811 29.753 61.9541 29.4556 61.846 29.1311C61.7378 28.8067 61.5756 28.5363 61.4134 28.2659C61.2241 27.9956 61.0619 27.7522 60.9267 27.5089L61.2782 27.1574Z" fill="black"/>
<path d="M61.7648 20.3171C62.0082 20.1008 62.3056 19.8034 62.6841 19.4519C63.0626 19.1004 63.4411 18.7219 63.7926 18.3704C64.2793 17.8837 64.7389 17.4241 65.1715 16.9645C65.6041 16.5048 65.9015 16.2074 66.0908 16.0182C66.9559 15.153 67.7671 14.5582 68.5511 14.2067C69.3352 13.8552 70.0652 13.7471 70.7411 13.8552C71.4171 13.9634 72.0119 14.2878 72.5256 14.8015C72.85 15.1259 73.0933 15.5045 73.3367 15.9911C73.553 16.4778 73.6611 17.0185 73.6341 17.6134C73.6071 18.2352 73.4448 18.8841 73.0933 19.6141C72.7419 20.3441 72.1741 21.1282 71.3359 21.9393L69.8759 23.3993L69.5785 23.1019L70.8763 21.8041C71.5522 21.1282 71.9578 20.5063 72.093 19.9115C72.2282 19.3167 72.1741 18.7759 71.9037 18.2893C71.6604 17.7756 71.2819 17.2889 70.8222 16.8293C70.0382 16.0452 69.2271 15.5856 68.443 15.5045C67.6589 15.3963 66.8478 15.7748 66.0096 16.64C65.5771 17.0726 65.3878 17.4511 65.4148 17.7485C65.4419 18.0459 65.7393 18.4785 66.253 18.9922L73.7963 26.4815C74.1478 26.833 74.4722 27.0763 74.7156 27.2115C74.9589 27.3196 75.2022 27.3467 75.4185 27.2385C75.6619 27.1304 75.9322 26.9141 76.2837 26.6167L76.5811 26.9141C76.3108 27.1304 76.0133 27.4278 75.6348 27.7793C75.2563 28.1308 74.8778 28.5093 74.4993 28.8878C74.0667 29.3204 73.6882 29.6989 73.3096 30.0774C72.9582 30.4559 72.6608 30.7534 72.4445 31.0237L72.1471 30.7263C72.4715 30.3748 72.6878 30.0774 72.7959 29.8341C72.9041 29.5908 72.9041 29.3745 72.7689 29.1311C72.6337 28.8878 72.3904 28.5904 72.0389 28.2389L64.5496 20.7497C64.1711 20.3711 63.8737 20.1278 63.6304 20.0197C63.3871 19.9115 63.1708 19.8845 62.9274 19.9926C62.6841 20.1008 62.3867 20.3171 62.0622 20.6415L61.7648 20.3171ZM69.6867 23.1289C70.2274 22.6422 70.66 22.2367 70.9845 21.9663C71.3089 21.6689 71.6063 21.4526 71.8496 21.2363C72.093 21.0471 72.3093 20.8848 72.5256 20.7226C73.3908 20.0737 74.1478 19.7222 74.7967 19.6682C75.4456 19.6141 76.1485 19.8574 76.9056 20.3441L78.8252 21.5067C79.3389 21.8582 79.7445 22.0474 80.0419 22.1285C80.3393 22.2096 80.5826 22.1285 80.7989 21.9122C80.9611 21.75 81.0422 21.5608 81.0693 21.3715C81.0963 21.1822 81.0963 20.9389 81.0422 20.6685L81.4208 20.6145C81.5019 21.1552 81.5019 21.6419 81.3937 22.0474C81.2856 22.453 81.0422 22.8585 80.6096 23.2911C80.1771 23.7237 79.6904 23.9941 79.1496 24.0752C78.6089 24.1563 77.96 23.94 77.203 23.4534L75.3915 22.2367C74.8778 21.8852 74.3911 21.6148 73.9585 21.4256C73.5259 21.2093 73.1204 21.1282 72.7419 21.1282C72.3634 21.1552 71.9848 21.3445 71.6063 21.723L69.9841 23.3452L69.6867 23.1289Z" fill="black"/>
</svg>
